<svg xmlns="http://www.w3.org/2000/svg" viewBox="0 0 24 24" fill="currentColor">
  <path d="M0 0h24v24H0V0zm22.034 18.276c-.175-1.095-.888-2.015-3.003-2.873-.736-.345-1.554-.585-1.797-1.14-.091-.33-.105-.51-.046-.705.15-.646.915-.84 1.26-.66.39.196.636.495.731.839.731-.438.731-.438 1.243-.605-.954-.547-2.199-.636-2.199-.636-.906-.105-1.771.045-2.4.42-.63.375-.975.975-1.095 1.68-.12.705-.045 1.365.195 1.95.24.585.675 1.05 1.23 1.395.555.345 1.23.555 1.95.675.72.12 1.485.12 2.205.045.72-.075 1.395-.255 1.95-.525.555-.27.975-.645 1.23-1.125.255-.48.375-1.05.375-1.68 0-.63-.12-1.2-.375-1.68-.255-.48-.675-.855-1.23-1.125-.555-.27-1.23-.45-1.95-.525-.72-.075-1.485-.075-2.205.045-.72.12-1.395.33-1.95.675-.555.345-.99.81-1.23 1.395-.24.585-.315 1.245-.195 1.95.12.705.465 1.305 1.095 1.68.63.375 1.494.525 2.4.42 0 0 1.245-.09 2.199-.636.489-.165.489-.165 1.243.605.095-.344.341-.643.731-.839.345-.18 1.11.014 1.26.66.059.195.045.375-.046.705-.243.555-1.061.795-1.797 1.14-2.115.858-2.828 1.778-3.003 2.873z"/>
</svg> 