<svg xmlns="http://www.w3.org/2000/svg" viewBox="0 0 24 24" fill="currentColor">
  <path d="M14.23,12.004a2.236,2.236 0 0,1 -2.235,2.236a2.236,2.236 0 0,1 -2.236,-2.236a2.236,2.236 0 0,1 2.235,-2.236a2.236,2.236 0 0,1 2.236,2.236m2.648,-10.69c-2.494,0.003 -4.587,1.842 -4.587,4.336c0,0.18 0.011,0.357 0.032,0.53c-0.313,-0.059 -0.632,-0.089 -0.955,-0.089c-2.494,0 -4.587,1.842 -4.587,4.336c0,2.494 2.093,4.336 4.587,4.336c0.323,0 0.642,-0.03 0.955,-0.089c-0.021,0.173 -0.032,0.35 -0.032,0.53c0,2.494 2.093,4.336 4.587,4.336c2.494,0 4.587,-1.842 4.587,-4.336c0,-2.494 -2.093,-4.336 -4.587,-4.336c-0.323,0 -0.642,0.03 -0.955,0.089c0.021,-0.173 0.032,-0.35 0.032,-0.53c0,-2.494 -2.093,-4.336 -4.587,-4.336m-2.648,10.69a2.236,2.236 0 0,1 2.235,2.236a2.236,2.236 0 0,1 -2.235,2.236a2.236,2.236 0 0,1 -2.236,-2.236a2.236,2.236 0 0,1 2.236,-2.236"/>
</svg> 